<svg version="1.1" id="Layer_1" xmlns="http://www.w3.org/2000/svg" xmlns:xlink="http://www.w3.org/1999/xlink" x="0px" y="0px"
	 width="100%" viewBox="0 0 784 1024" enable-background="new 0 0 784 1024" xml:space="preserve">
<path fill="#000000" opacity="1.000000" stroke="none" 
	d="
M163.501953,144.346100 
	C175.110794,140.305466 186.631424,141.087509 197.969971,142.939316 
	C213.036026,145.399872 227.996658,148.555740 242.936768,151.723328 
	C257.071564,154.720154 270.993317,158.991043 285.246399,161.080963 
	C298.110962,162.967285 310.406494,166.978821 323.177246,169.169983 
	C340.841919,172.200790 358.230225,176.831238 375.752838,180.704254 
	C394.533966,184.855423 413.342163,188.884018 432.120728,193.046524 
	C439.098663,194.593262 446.003571,196.469589 452.982483,198.011459 
	C460.748718,199.727295 468.529205,201.420273 476.364380,202.769318 
	C482.274109,203.786850 487.680023,206.330627 493.611969,207.461838 
	C508.935211,210.383972 524.088379,214.209320 539.287170,217.769089 
	C552.380432,220.835709 565.413391,224.163895 578.529297,227.127579 
	C587.326050,229.115311 587.942688,228.052185 588.832642,219.170258 
	C589.791138,209.605072 591.694885,200.130707 593.287659,190.633728 
	C597.435730,165.900146 601.209351,141.093231 605.942505,116.471306 
	C610.616821,92.155373 613.297546,67.505913 618.657104,43.319069 
	C619.043762,41.574463 618.786194,39.283466 620.913757,38.721703 
	C623.073669,38.151409 624.010559,40.312046 625.126648,41.666866 
	C635.481384,54.236973 643.035095,68.484749 649.771362,83.199532 
	C656.907654,98.788162 664.564026,114.256424 667.644165,131.279785 
	C669.923706,143.878448 671.604553,156.751999 666.226257,169.085464 
	C657.889526,188.203278 646.876282,205.481674 630.526611,218.887054 
	C628.944641,220.184219 627.540466,221.509567 627.541321,223.840134 
	C629.722961,224.884506 630.929443,223.144638 632.354736,222.219376 
	C648.570923,211.692673 666.066406,204.118896 684.930115,199.906845 
	C704.778198,195.474976 720.005676,203.470581 733.585022,217.449982 
	C748.046753,232.337692 759.067688,249.451111 768.790894,267.532593 
	C771.216125,272.042572 772.768127,277.051239 774.441467,281.926788 
	C775.697815,285.587311 773.947388,287.846771 770.846436,286.596344 
	C760.975403,282.615967 750.381226,282.404175 740.146606,280.375214 
	C710.498901,274.497772 680.792542,268.916504 651.114685,263.190674 
	C649.192810,262.819885 647.317200,262.209442 645.009216,261.602386 
	C645.762512,264.412933 647.842834,265.586090 649.480652,267.087189 
	C656.706848,273.709930 660.687805,281.660706 662.725830,291.497131 
	C665.453369,304.661316 662.321594,316.699585 659.885315,329.293610 
	C657.266724,342.830841 653.606628,356.113129 651.127502,369.688507 
	C647.941833,387.131927 642.878723,404.225555 639.404846,421.625671 
	C637.062988,433.355743 634.025024,444.917877 631.773987,456.663788 
	C629.684692,467.565796 626.865540,478.327637 624.760254,489.226959 
	C623.370300,496.423096 623.681152,496.477295 630.718872,496.729309 
	C637.588745,496.975281 642.647827,500.089233 644.704224,506.731598 
	C645.832886,510.377136 647.828674,510.683502 651.041870,510.454071 
	C668.431458,509.212250 685.106506,512.207153 700.887695,519.657349 
	C712.257568,525.024963 722.847107,531.772705 731.342224,541.064026 
	C744.127991,555.048096 754.021973,570.520691 758.663025,589.544373 
	C762.140930,603.799927 763.683228,617.909851 761.067078,631.988770 
	C756.288147,657.706665 744.354248,679.863464 723.977051,696.839966 
	C713.387634,705.662354 701.237610,711.897766 688.244446,716.357300 
	C683.247925,718.072205 677.994995,719.133728 672.786316,720.102234 
	C669.574951,720.699402 668.087402,722.036255 668.307800,725.382080 
	C668.926941,734.781555 666.032104,743.103760 660.317505,750.512390 
	C659.911621,751.038513 659.620667,751.656067 659.197083,752.165283 
	C656.823059,755.019714 642.220337,759.257812 638.761169,758.060486 
	C635.667603,756.989624 635.685608,754.574951 636.167236,751.914124 
	C636.847290,748.156677 637.933655,744.443298 637.604919,740.557434 
	C637.536316,739.745972 637.626282,738.861633 636.412476,738.123291 
	C634.037170,739.688904 633.489990,742.534546 632.294678,744.924988 
	C630.657654,748.198669 628.633362,748.220825 626.774353,745.330017 
	C624.721680,742.138062 623.034241,738.711182 620.836792,734.754883 
	C619.957092,740.215820 618.870972,745.016602 618.505432,749.871582 
	C618.237122,753.435242 616.647827,755.138916 613.498962,756.396973 
	C608.051941,758.573120 602.582092,758.684998 597.164368,757.890503 
	C595.897156,755.818542 597.714233,754.484985 597.824097,751.868042 
	C591.842834,756.141357 585.949707,755.531311 579.994324,753.375488 
	C577.304993,752.401978 575.496460,753.487244 574.390808,755.991882 
	C568.793701,768.670471 560.931213,780.107483 554.407776,792.286133 
	C548.293152,803.701599 541.124695,814.551331 535.761963,826.393005 
	C534.836121,828.437317 533.074097,829.242432 530.879211,829.208496 
	C528.879639,829.177673 526.877441,829.224487 524.880249,829.142639 
	C517.744019,828.850037 517.531372,828.899292 519.656860,835.929016 
	C521.868530,843.243652 524.269104,850.529175 527.118042,857.613831 
	C529.187500,862.760132 530.367615,868.101990 531.589722,873.416809 
	C533.635071,882.312012 535.188232,891.322815 536.826599,900.307251 
	C537.181152,902.251526 537.133301,904.293213 537.075745,906.284424 
	C536.840820,914.421814 534.991821,915.528015 527.422546,913.219116 
	C515.825317,909.681580 504.200104,906.273865 493.268738,900.915955 
	C491.776398,900.184448 490.034515,899.597778 488.964905,898.432922 
	C484.966614,894.078613 481.495941,895.163391 477.422150,898.531067 
	C469.070404,905.434998 460.092499,911.520813 450.296509,916.193848 
	C445.973022,918.256287 441.317444,919.841736 436.644501,920.903992 
	C428.535828,922.747192 421.405090,919.852173 415.480286,914.510864 
	C404.224884,904.363892 395.822906,891.855652 388.440338,878.818726 
	C384.307068,871.519714 379.718628,867.160583 370.842072,868.003967 
	C365.244171,868.535828 359.536346,867.909058 353.877777,867.804077 
	C349.943695,867.731018 346.862000,869.176270 344.489746,872.459473 
	C340.263000,878.309387 337.359131,884.856689 334.115112,891.234680 
	C323.631714,911.845947 313.405243,932.579712 303.864166,953.648560 
	C302.777985,956.047058 301.613495,958.480347 300.304199,960.713196 
	C297.946411,964.734131 293.854279,963.652710 290.460724,962.405762 
	C269.547974,954.720825 253.209991,941.091492 239.438293,923.764282 
	C233.306396,916.049255 227.598114,908.136780 222.184494,899.927307 
	C208.462097,879.118164 200.003891,856.441650 197.164093,831.683594 
	C196.938431,829.716248 197.051086,827.693848 197.168747,825.706604 
	C197.428299,821.322205 200.092529,819.429077 204.185028,819.813110 
	C217.286942,821.042786 230.729721,822.013672 242.775360,827.094238 
	C250.743469,830.455017 254.547943,827.452026 259.310272,822.826538 
	C268.271881,814.122437 277.436646,805.627686 286.412109,796.937683 
	C290.685455,792.800293 295.802094,790.038208 301.059570,787.546997 
	C305.321564,785.527466 309.829773,785.848938 314.190674,787.527222 
	C317.760345,788.901123 321.277985,790.410034 324.820953,791.853577 
	C326.762482,792.644714 328.854797,794.729553 330.779449,793.097046 
	C332.730530,791.442078 331.416931,788.774414 331.491974,786.720703 
	C329.274261,785.371033 328.840240,788.173828 326.794464,787.762939 
	C324.641418,786.181458 323.225891,783.664795 322.705505,780.607849 
	C321.977600,776.332153 321.017761,772.172302 319.048737,768.218506 
	C317.992401,766.097229 316.768036,765.198669 314.480865,765.241150 
	C309.815826,765.327820 305.147430,765.326660 300.481995,765.255615 
	C298.290802,765.222290 296.733337,766.082153 295.327667,767.734253 
	C284.503510,780.456421 272.759918,783.469971 256.640930,777.744568 
	C248.207840,774.749146 240.294373,770.216553 236.864212,761.933594 
	C233.132217,752.921631 229.507858,743.766663 226.509720,734.428528 
	C226.357712,733.955078 226.184433,733.447876 226.206772,732.965088 
	C226.540009,725.763977 224.601990,719.767639 219.448013,714.168884 
	C214.027863,708.281006 212.710419,700.335571 216.743011,693.186340 
	C221.314713,685.081360 229.050507,680.477295 238.435928,679.887573 
	C243.866241,679.546387 249.398026,680.283630 254.840393,680.913452 
	C257.301727,681.198303 258.800568,680.792114 260.283234,678.695374 
	C263.916138,673.557739 269.178223,671.875061 275.236053,672.781616 
	C285.119019,674.260803 294.152710,677.925171 302.256500,683.808777 
	C305.872040,686.433777 307.623016,689.798401 307.477631,694.464355 
	C307.358521,698.288208 306.382355,702.409485 309.128448,706.357361 
	C312.289551,703.502930 313.227203,699.672119 314.498505,696.308655 
	C319.553436,682.934692 324.051239,669.351196 329.013214,655.940674 
	C331.878540,648.196716 330.521942,640.100403 331.616455,632.220947 
	C332.024292,629.284973 329.648590,628.790100 327.429199,628.353455 
	C320.267700,626.944397 313.081268,625.709290 305.877533,624.522095 
	C293.940399,622.554932 282.000458,620.612488 270.036743,618.808594 
	C261.431458,617.511169 262.249908,617.706421 260.002075,625.822998 
	C255.638565,641.579163 256.153259,657.773438 254.394501,673.753296 
	C253.840149,678.789978 250.530594,677.601257 247.814377,676.854858 
	C238.701675,674.350647 230.430511,670.077515 223.401154,663.708740 
	C211.207153,652.660583 202.426529,639.269104 196.624741,623.895203 
	C196.041443,622.349548 195.372498,620.836304 194.387314,619.334961 
	C193.590591,626.964355 192.566040,634.616394 193.581100,642.192932 
	C194.536377,649.323059 193.711624,656.508850 195.007828,663.609375 
	C195.749786,667.673767 192.972778,667.751404 189.926529,667.173035 
	C179.099365,665.117371 170.263992,659.233337 161.862656,652.576416 
	C147.560638,641.244080 137.179916,627.056396 131.065842,609.800659 
	C130.534760,608.301758 130.144318,606.542053 127.823700,605.936340 
	C126.608879,608.533264 126.540146,611.443542 126.685966,614.073730 
	C127.431458,627.520020 127.478867,641.030457 129.856339,654.351074 
	C130.647339,658.782959 128.856186,660.394592 124.602585,658.699707 
	C95.731880,647.196350 74.300873,628.217957 62.896633,598.553406 
	C57.141827,583.584167 53.808544,568.222839 53.949585,552.382568 
	C54.045071,541.658386 56.058022,530.911255 57.698952,520.249146 
	C61.184933,497.598602 64.684097,474.942322 68.731911,452.387817 
	C74.808449,418.529266 81.089676,384.701935 87.827728,350.969971 
	C91.084381,334.666534 93.381859,318.178833 97.109940,301.989319 
	C101.437180,283.197968 104.510117,264.164093 108.877319,245.369675 
	C112.747482,228.714249 115.307175,211.723068 119.715553,195.178406 
	C125.135788,174.836258 135.548279,157.900742 154.693268,147.483597 
	C157.361084,146.032013 160.173248,145.091888 163.501953,144.346100 
M435.274597,318.662476 
	C471.242035,309.137909 506.353546,297.789642 534.225159,271.268219 
	C535.437012,273.106659 534.947571,274.215790 534.771545,275.359406 
	C531.825439,294.494019 531.963562,313.549713 537.315308,332.259460 
	C544.162537,356.197754 556.223389,376.587128 578.162048,389.925812 
	C581.995911,392.256775 586.313416,393.497498 591.636597,395.935913 
	C586.731812,397.223236 586.963867,400.651703 586.389221,403.654724 
	C581.795105,427.663330 577.240173,451.679443 572.647095,475.688232 
	C565.804932,511.453735 559.070374,547.240601 552.022278,582.965515 
	C549.288330,596.823120 547.167969,610.860229 542.065918,624.163879 
	C534.462097,643.990845 520.670349,651.813782 500.476440,652.323486 
	C474.341858,652.983154 448.860504,647.510376 423.172150,643.997498 
	C421.061188,643.708801 418.987793,642.822388 416.754974,644.105713 
	C416.028687,647.737793 418.693451,649.954773 420.524445,652.328552 
	C425.610413,658.922424 430.969940,665.304626 436.161133,671.818420 
	C438.337769,674.549622 441.778503,676.837097 439.474396,681.278748 
	C438.922821,682.342041 440.188965,683.381531 440.851990,684.327820 
	C442.476746,686.646912 444.079254,688.981567 445.706390,691.298889 
	C453.086945,701.810242 464.087891,706.697998 475.731506,710.560364 
	C476.097015,710.681641 476.631927,710.292236 477.855682,709.886108 
	C475.817444,700.413635 477.092255,690.873230 478.310059,681.351257 
	C479.523346,671.864990 481.424530,662.533325 485.416443,653.694153 
	C497.533783,692.864746 526.178833,716.246887 559.591980,735.927063 
	C560.214172,734.586304 560.529785,734.172546 560.597778,733.721436 
	C564.470581,708.050659 570.426819,682.805237 576.237061,657.534912 
	C580.970337,636.948425 585.812439,616.384338 590.929871,595.891113 
	C591.927246,591.897217 590.994324,589.720215 587.762634,587.631287 
	C584.544312,585.551025 581.576904,583.011719 580.075500,579.306946 
	C579.426392,577.705383 579.427917,575.916809 581.111572,574.831177 
	C582.565857,573.893555 583.528015,575.069885 584.546936,575.958252 
	C593.454773,583.725037 603.603027,583.218384 611.952576,574.785339 
	C621.052429,565.594604 626.978699,554.371338 631.775879,542.650513 
	C635.864319,532.661194 639.117249,522.218872 636.816223,511.088776 
	C635.661743,505.504456 631.949341,503.197815 626.330872,503.691895 
	C618.334106,504.395142 611.223083,507.397766 604.274658,511.139038 
	C601.936401,512.398071 599.663330,514.404114 596.560608,513.783569 
	C595.824707,510.723511 597.388489,508.966370 599.333557,507.664429 
	C601.951416,505.912109 604.612488,503.965302 607.550232,503.006958 
	C612.786255,501.298859 615.195923,497.937714 616.333496,492.688110 
	C618.904724,480.822510 621.934265,469.056091 624.785645,457.251373 
	C633.924744,419.415466 642.701050,381.494934 650.635315,343.388062 
	C653.512756,329.568085 656.913147,315.730804 655.724365,301.419586 
	C654.123535,282.148315 644.912537,267.518768 628.347351,257.530457 
	C627.534302,257.040222 626.384277,256.845276 626.806763,254.368011 
	C673.062866,261.846405 719.214783,270.033600 766.080078,276.856628 
	C764.630981,270.793823 761.049805,266.755096 758.116943,262.416321 
	C746.232178,244.834335 733.553345,227.929016 716.207092,215.185486 
	C711.566162,211.776001 706.544373,209.396683 700.645325,209.033249 
	C689.013916,208.316650 677.789856,210.037750 666.780640,213.831558 
	C649.100830,219.924103 632.454285,228.343521 615.529602,236.147308 
	C613.863892,236.915359 612.363892,238.572037 609.402710,237.623276 
	C614.697937,230.786392 620.267944,224.708313 625.351440,218.338593 
	C635.899109,205.121979 645.506836,191.459091 653.095154,176.350113 
	C660.388489,161.828415 662.317017,146.838516 659.045288,130.790253 
	C656.093079,116.309334 651.165649,102.575569 645.509399,89.063835 
	C640.059265,76.044510 633.683533,63.456978 625.516052,50.709545 
	C624.333191,56.222416 623.217773,60.829048 622.365295,65.483818 
	C612.777527,117.834114 603.261841,170.197617 593.648499,222.543198 
	C591.410950,234.726791 591.276123,234.697067 579.170227,232.189499 
	C557.845032,227.772308 536.515747,223.374680 515.192993,218.945511 
	C470.101562,209.579071 425.016541,200.181793 379.922424,190.828247 
	C353.723419,185.393951 327.515045,180.004791 301.305267,174.622681 
	C269.060944,168.001358 236.822037,161.352615 204.556900,154.834091 
	C193.439651,152.588089 182.224792,150.625183 170.941315,153.781525 
	C149.095978,159.892380 137.254242,175.634888 131.476868,196.392563 
	C126.572929,214.011978 123.562653,232.101791 119.793922,250.003113 
	C108.723671,302.586395 98.754234,355.385651 88.354912,408.099884 
	C80.599091,447.414246 73.174324,486.797211 66.627541,526.334045 
	C64.203331,540.974243 62.700279,555.776733 64.658989,570.599426 
	C68.477371,599.495300 83.933983,621.155334 107.361557,637.597168 
	C110.625168,639.887573 113.907425,642.499451 118.422768,643.000305 
	C119.665199,628.357971 121.034912,614.116394 123.965263,600.133972 
	C125.018036,595.110535 123.749382,592.610535 119.424835,590.205444 
	C108.810921,584.302673 103.193665,574.987671 101.468094,562.927856 
	C100.402847,555.483032 101.868958,548.366150 102.628601,541.112000 
	C105.333557,515.281555 110.494957,489.896179 115.681656,464.474518 
	C122.095245,433.039551 139.480164,409.584839 165.691010,392.120667 
	C179.894791,382.656769 195.329498,375.580536 211.311325,369.637115 
	C250.188232,355.179321 290.746124,347.459686 331.293976,339.775726 
	C365.776794,333.241089 400.428680,327.568634 435.274597,318.662476 
M543.225220,581.893066 
	C547.572449,561.401733 551.915710,540.909546 556.267822,520.419250 
	C564.765259,480.412598 571.866211,440.139679 579.315918,399.932678 
	C579.793030,397.357544 578.907837,396.253265 576.703857,395.465973 
	C561.653625,390.089661 550.439331,379.990814 541.801086,366.818848 
	C529.385620,347.887146 523.309692,327.214417 524.515869,304.450409 
	C524.919006,296.841827 526.513489,289.563965 529.685547,281.342224 
	C521.027832,290.161743 512.628113,297.186676 503.153625,302.873016 
	C479.884857,316.838440 454.316956,324.791504 428.230591,331.258850 
	C392.513489,340.113861 356.153320,345.732819 319.986603,352.313507 
	C285.606781,358.569031 251.246170,364.908630 218.087646,376.326874 
	C208.837677,379.512115 199.728500,383.066437 190.744110,387.475861 
	C191.264053,389.104492 191.663086,390.345703 192.056717,391.588593 
	C201.876419,422.595032 198.863129,452.202515 181.225189,479.649139 
	C171.195740,495.256104 156.491394,503.466827 137.458328,502.949493 
	C132.936966,502.826630 129.536789,501.369232 127.130096,497.292847 
	C125.178658,493.987518 123.251144,490.525482 119.800102,487.694794 
	C119.252792,489.808136 118.709404,491.368774 118.453804,492.975220 
	C115.447479,511.870056 113.194893,530.863586 111.454811,549.910156 
	C109.698769,569.131348 116.763802,579.393677 135.411545,584.476379 
	C142.287720,586.350586 149.409546,587.371704 156.456100,588.564758 
	C195.650925,595.200867 234.852768,601.795837 274.060730,608.354004 
	C304.738770,613.485352 335.410675,618.657410 366.119354,623.599792 
	C395.519470,628.331665 424.939606,632.952637 454.397797,637.304993 
	C470.342285,639.660706 486.243073,642.755249 502.532623,641.737000 
	C516.241272,640.880127 526.067627,634.849060 531.731140,621.933044 
	C537.262878,609.317749 539.998474,595.992798 543.225220,581.893066 
M645.137146,599.476257 
	C644.894226,607.981995 643.984070,616.423340 642.103943,624.716064 
	C638.624451,640.063354 632.393372,654.000000 621.362061,665.607910 
	C615.753723,671.509460 608.817566,675.303284 601.742615,679.188721 
	C602.012207,680.063171 602.070312,680.758545 602.407715,681.269287 
	C607.097900,688.368103 611.468140,695.631409 614.758057,703.517334 
	C615.782898,705.973755 618.062378,707.030029 620.553406,707.856689 
	C636.918274,713.287476 653.558167,715.261963 670.742798,712.857056 
	C689.879028,710.178955 706.712402,702.619019 721.444092,690.016846 
	C718.835876,690.518494 716.263611,690.305725 713.701355,690.175293 
	C711.040710,690.039978 708.373291,689.853821 705.736450,689.490173 
	C703.363831,689.162964 699.982117,689.998474 699.137939,687.166382 
	C698.173157,683.929626 700.468140,681.163086 702.651245,678.817139 
	C704.088196,677.273010 706.066528,676.899414 708.126038,676.758728 
	C712.183411,676.481506 716.080688,677.460754 719.998535,678.198975 
	C723.555725,678.869263 726.898254,679.965759 726.284485,685.444763 
	C728.238770,683.743774 729.467712,682.882263 730.443726,681.793884 
	C751.464905,658.353638 759.098450,630.720093 755.056213,599.895508 
	C752.195618,578.082031 742.417847,559.384338 726.797729,543.816895 
	C705.519775,522.610596 679.665649,513.345215 649.874817,514.313660 
	C647.719727,514.383728 646.416077,515.031128 646.336060,517.447815 
	C645.905273,530.470520 641.984497,542.642029 637.080078,554.548645 
	C636.059998,557.025146 635.888184,559.328369 637.131042,561.744263 
	C643.070862,573.290344 644.644165,585.787781 645.137146,599.476257 
M433.189270,815.787964 
	C428.520355,818.066406 423.532043,819.481262 418.547058,820.758118 
	C389.541473,828.187866 362.685577,825.261292 338.490509,805.650024 
	C329.615723,798.456543 318.157043,796.023865 306.661804,795.249207 
	C304.254028,795.086914 302.134247,796.115051 299.985931,797.061035 
	C292.205597,800.487183 286.366547,806.543396 279.904877,811.758301 
	C278.287628,813.063416 278.699188,814.504822 278.725555,816.438599 
	C278.794312,821.476257 281.070923,827.288818 275.906616,831.312256 
	C266.435883,838.690979 270.376556,849.523193 278.389587,852.389526 
	C281.862061,853.631592 284.782349,856.080322 285.535522,859.590332 
	C287.935120,870.772766 295.794647,875.765747 305.835236,878.511169 
	C310.944153,879.908081 313.462219,882.966370 314.168213,888.361023 
	C314.881897,893.814453 316.634094,899.142090 323.224213,900.963013 
	C323.859863,899.984070 324.502045,899.041443 325.097656,898.070312 
	C330.230804,889.700806 334.692291,880.946594 339.693451,872.491150 
	C344.066559,865.097595 349.819122,862.943542 357.680328,862.401306 
	C363.829895,861.977051 370.258514,862.708191 376.522461,860.389709 
	C374.641846,851.062195 369.433044,843.191223 368.552094,833.896667 
	C370.679016,834.075134 370.916016,835.369385 371.352631,836.367065 
	C377.192322,849.710449 385.068115,861.852112 393.266479,873.818604 
	C400.804962,884.821838 408.827942,895.336182 418.482910,904.682312 
	C427.055603,912.980774 436.218964,913.292847 446.500397,909.291077 
	C458.857880,904.481262 470.066010,897.677917 480.825012,890.020081 
	C483.614960,888.034302 484.517365,885.272766 484.622467,882.269287 
	C485.064941,869.623169 486.996307,857.057983 486.722504,844.379944 
	C486.427704,830.729431 486.256592,817.069702 485.570892,803.437195 
	C485.259094,797.238342 485.105865,790.880920 482.526489,783.894043 
	C467.521637,797.044739 452.159515,808.573730 433.189270,815.787964 
M384.260651,670.746277 
	C385.972565,668.489319 387.622681,666.181824 389.414520,663.990234 
	C391.071075,661.964050 390.801941,660.330017 388.608521,659.071411 
	C381.812561,655.171936 374.757355,651.870911 366.894409,655.619263 
	C358.598694,659.574036 354.724518,666.647583 354.336823,675.682800 
	C354.190552,679.091309 354.313080,682.511414 354.313080,686.145996 
	C353.266113,686.265564 352.305695,686.380920 351.343964,686.484253 
	C342.669189,687.416199 337.594177,692.304077 335.943390,700.941833 
	C334.510834,708.437805 337.374542,714.685730 341.365570,720.575867 
	C347.578979,729.745911 356.960663,734.911926 366.453674,739.851135 
	C386.781311,750.427490 408.202454,756.387756 431.322815,754.707458 
	C439.186005,754.135986 446.341278,751.664124 451.651154,745.398499 
	C456.131927,740.111145 455.798096,734.301758 450.913239,729.515625 
	C446.925507,725.608459 441.991547,723.160828 437.304535,720.291931 
	C434.044983,718.296692 431.992676,718.485168 429.347900,721.567444 
	C424.019501,727.777222 410.591064,730.154541 403.971497,726.357422 
	C409.074005,724.692749 414.427063,724.977600 419.019287,722.415710 
	C424.163300,719.545837 425.770874,714.938110 425.801575,709.432678 
	C425.831268,704.106628 424.490845,699.320740 420.490143,695.106140 
	C417.635712,697.423950 414.739563,699.391235 412.323792,701.833801 
	C409.251556,704.939941 406.555511,704.729553 403.093353,702.407654 
	C394.572266,696.692810 388.721405,688.720215 383.009583,680.438232 
	C380.423126,676.687927 380.150269,674.051514 384.260651,670.746277 
M347.731110,768.232056 
	C344.844360,771.601135 340.452301,773.956238 339.473816,778.628113 
	C335.705383,796.620850 341.326172,806.708252 358.465790,813.262390 
	C358.621155,813.321838 358.771057,813.395874 358.927246,813.452759 
	C378.917572,820.734619 399.052094,820.028503 419.189667,814.278870 
	C424.379944,812.796936 429.690308,811.386597 434.568909,808.425598 
	C429.673340,794.328308 424.847656,780.535950 420.112885,766.712524 
	C419.140747,763.874268 417.277313,763.116150 414.444458,762.969666 
	C398.793030,762.160339 384.074127,757.543030 369.813904,751.381592 
	C366.866577,750.108154 365.013855,750.369141 362.849762,752.715637 
	C358.115967,757.848328 353.122223,762.741211 347.731110,768.232056 
M636.650269,628.132324 
	C637.476196,624.401367 638.467468,620.698242 639.099182,616.934692 
	C641.665527,601.643860 641.042480,586.488281 636.678284,571.569580 
	C636.100098,569.593079 635.720947,567.088684 633.115540,566.570801 
	C630.322937,566.015747 629.604187,568.561584 628.320862,570.189758 
	C621.726990,578.555847 615.380493,587.287354 604.532776,590.582886 
	C601.377869,591.541382 599.948181,593.202087 599.276123,596.328674 
	C595.262085,615.002258 592.083618,633.940063 586.597534,652.179443 
	C583.539978,662.344727 585.895081,667.872498 593.993225,673.206177 
	C597.249573,675.350891 599.426758,675.928040 602.869873,674.050476 
	C621.039185,664.142761 630.676880,647.992493 636.650269,628.132324 
M490.596588,727.043213 
	C478.575348,750.149658 466.554077,773.256104 454.532837,796.362549 
	C463.364746,790.587585 471.001831,783.784912 477.677704,775.886780 
	C481.886230,770.907776 482.466919,771.005493 486.668457,776.048584 
	C496.631042,788.006592 504.886841,801.047852 511.447876,815.162964 
	C512.432068,817.280396 513.300842,819.461731 516.197937,819.684448 
	C519.178528,819.913574 522.159790,820.252686 525.109558,820.734680 
	C528.968445,821.365356 531.352539,819.719910 533.228516,816.445435 
	C537.033386,809.803772 541.047852,803.281311 545.019409,796.736206 
	C553.654541,782.505676 562.249939,768.250183 571.023071,754.105103 
	C572.849915,751.159607 571.414795,747.850891 569.471985,748.503967 
	C564.062195,750.322449 560.382629,745.827454 555.261230,746.055542 
	C549.817993,755.344543 544.288147,764.801453 538.735596,774.245117 
	C536.967041,777.253113 535.153442,779.298645 530.797363,778.421875 
	C515.985840,775.440796 501.072662,772.961182 486.188232,770.347534 
	C479.968323,769.255188 479.805664,768.811218 482.933899,763.105042 
	C492.054932,746.467773 501.082306,729.779053 510.158905,713.117371 
	C511.041412,711.497437 512.190002,709.957275 510.468323,708.169739 
	C508.445801,706.069946 506.463348,703.931519 504.062683,701.384583 
	C499.424774,710.233276 495.190735,718.311462 490.596588,727.043213 
M219.958450,841.541382 
	C215.039398,836.552063 210.106659,831.579895 203.404510,827.169678 
	C203.404510,830.313660 203.220642,832.148743 203.444382,833.932678 
	C203.857193,837.224243 204.344559,840.523621 205.087769,843.753723 
	C210.668411,868.008179 222.118408,889.529480 236.481049,909.552917 
	C247.531738,924.958984 260.517029,938.515381 277.070862,948.230713 
	C281.442535,950.796448 285.948700,953.047241 291.575134,954.441223 
	C287.691284,943.713196 282.643738,934.357056 277.485413,925.071777 
	C261.108826,895.593018 242.784073,867.442688 219.958450,841.541382 
M491.372070,844.498962 
	C491.316772,856.148376 492.340057,867.957703 490.060181,879.369751 
	C488.412964,887.614990 491.840179,890.850525 498.386841,893.930237 
	C508.740631,898.800964 518.970825,903.863464 531.644958,907.729858 
	C527.175903,861.983826 510.309875,822.098938 487.233154,784.369812 
	C490.205627,804.026428 491.788757,823.688354 491.372070,844.498962 
M269.555511,729.001587 
	C274.601837,731.949890 280.089600,733.002319 285.864532,732.731384 
	C290.923889,732.494019 292.811737,730.642456 292.637817,725.574890 
	C292.400879,718.671082 290.406799,712.163391 287.596436,705.884216 
	C286.788696,704.079407 285.359131,702.300598 286.741516,699.692078 
	C290.634857,703.164185 293.037781,707.201843 294.791687,711.413696 
	C298.409271,720.100708 302.578857,728.857910 297.674561,738.574158 
	C296.873230,740.161743 296.838440,742.337341 297.905853,743.898743 
	C300.390320,747.533203 300.905640,751.598450 300.885956,755.774353 
	C300.877045,757.667969 301.489563,758.684570 303.344727,758.721619 
	C307.121796,758.797058 310.939697,759.410706 314.727081,758.215698 
	C315.154816,754.579285 313.459503,751.587097 312.467041,748.474976 
	C311.615082,745.803345 311.924530,743.686829 313.958771,741.661804 
	C318.672607,736.969177 323.265503,732.155273 327.922668,727.405396 
	C332.658661,722.575256 332.662567,722.469116 327.504425,717.196899 
	C325.627014,718.824707 325.272339,721.244629 324.452423,723.356812 
	C322.682129,727.917480 320.000000,730.294495 314.885284,728.382446 
	C312.087555,727.336548 309.289124,726.199646 306.392029,725.535706 
	C302.795227,724.711548 301.870453,722.670898 302.577789,719.324463 
	C303.897614,713.080322 303.574341,706.731506 303.626312,700.410400 
	C303.671661,694.897888 301.345337,690.938416 296.275818,688.441345 
	C289.806702,685.254944 283.157135,682.724548 275.982849,681.779541 
	C271.807556,681.229553 268.633118,682.500183 266.515137,686.528564 
	C262.237885,694.664001 260.108582,703.233154 260.121918,712.411377 
	C260.132172,719.462280 262.633423,725.050171 269.555511,729.001587 
M526.907104,724.607788 
	C522.892700,721.007019 518.878235,717.406311 514.413330,713.401611 
	C504.777710,731.234680 495.496979,748.411011 485.966492,766.049500 
	C501.266144,768.678223 515.646301,771.187439 530.046387,773.576721 
	C531.956482,773.893616 534.104370,774.077026 535.399902,771.914062 
	C541.011780,762.544739 546.635742,753.182617 552.350586,743.658997 
	C543.520691,737.429199 534.987793,731.903198 526.907104,724.607788 
M208.432831,825.128601 
	C208.621521,825.518372 208.708282,826.035461 209.013428,826.279663 
	C229.590790,842.739807 244.948303,863.655334 259.324646,885.377747 
	C271.366364,903.572449 281.780090,922.690308 291.042053,942.502319 
	C290.133789,936.422119 289.035645,930.430481 287.610046,924.517761 
	C280.706970,895.887817 270.442047,868.549255 256.140503,842.751770 
	C252.377502,835.963989 247.265610,831.622498 239.380417,829.974060 
	C229.284882,827.863525 219.354218,825.003357 208.432831,825.128601 
M232.176895,659.318420 
	C236.139389,661.936218 239.868988,665.084595 245.387177,665.203613 
	C247.526993,649.099243 251.294159,633.506165 255.607727,617.164856 
	C236.331619,613.868225 217.535538,610.653687 197.259583,607.186035 
	C202.636932,629.756409 214.244202,646.205078 232.176895,659.318420 
M453.673828,789.256592 
	C464.167999,769.018738 474.594360,748.745239 485.213409,728.573120 
	C487.345612,724.522705 486.354553,722.890869 482.070923,722.253967 
	C476.646790,721.447510 471.256592,720.453125 466.298340,717.856445 
	C464.442780,716.884705 462.379364,715.446106 460.306946,717.305969 
	C458.412201,719.006470 459.753998,721.033875 460.149170,722.909912 
	C462.565033,734.379883 461.236206,744.763855 451.762573,752.940918 
	C446.857208,757.175110 441.255035,759.846436 434.971588,761.318604 
	C430.498199,762.366638 428.084106,765.812927 429.395386,769.302490 
	C433.315918,779.735901 437.391052,790.111267 441.405884,800.509277 
	C442.854919,804.262207 444.920593,804.028992 447.208710,801.316345 
	C450.041595,797.957764 451.236603,793.689636 453.673828,789.256592 
M155.669540,600.141724 
	C148.399261,598.895691 141.128998,597.649658 133.644608,596.366882 
	C136.028870,616.983704 170.416000,650.366821 183.938934,652.877747 
	C184.134415,652.447266 184.489105,652.011475 184.516266,651.556152 
	C185.348907,637.597046 186.969055,623.753723 190.500443,610.186218 
	C191.292618,607.142761 189.705521,605.887512 186.996063,605.428040 
	C176.842712,603.706482 166.690491,601.978210 155.669540,600.141724 
M588.020996,675.541687 
	C586.532166,674.280884 585.294067,672.639404 582.960144,672.227600 
	C581.317749,675.354370 580.837830,678.671143 580.702393,681.860779 
	C582.871826,684.016602 585.782776,680.844116 588.302246,683.931519 
	C584.128357,683.987549 580.143677,684.187622 578.748230,687.854370 
	C577.035156,692.355896 576.070862,697.364929 577.884644,702.030579 
	C580.789062,709.501648 582.839966,717.217102 584.933411,724.903259 
	C587.035400,732.620728 592.249023,737.238647 599.151245,739.815186 
	C607.519287,742.939026 616.332214,739.796082 614.983032,728.185547 
	C612.569702,707.416260 603.695007,690.189941 588.020996,675.541687 
M254.531021,728.398010 
	C247.968567,730.370972 241.430740,727.401367 234.925262,728.005676 
	C232.710541,740.634521 242.064880,751.593811 257.928864,755.311157 
	C271.772430,758.555054 286.619446,752.609070 289.535797,742.645508 
	C289.232147,742.519226 288.938202,742.318176 288.623505,742.277466 
	C277.649780,740.855957 267.541046,737.520386 259.604431,729.298340 
	C258.430939,728.082703 256.852600,728.316833 254.531021,728.398010 
M253.675964,708.414551 
	C253.440140,702.416809 253.739746,696.453857 255.309692,690.637939 
	C256.107056,687.684143 255.186966,686.287659 252.159256,685.925293 
	C244.525116,685.011475 237.268173,685.861572 230.725204,690.232910 
	C224.983170,694.069153 223.279388,698.378418 224.530334,705.146423 
	C226.729370,717.043823 242.213577,726.566406 254.938843,722.076904 
	C254.525040,717.889893 254.104263,713.632385 253.675964,708.414551 
M399.861786,660.361755 
	C398.256836,662.484192 396.651764,664.606567 395.046967,666.729187 
	C389.591034,673.945740 391.508759,680.307861 400.162262,682.388123 
	C404.730194,683.486328 408.354950,684.548218 408.572266,690.278687 
	C408.643768,692.164612 410.493958,693.983154 411.662262,696.066956 
	C416.459808,693.090454 420.572968,689.800354 423.994873,685.701843 
	C429.836487,678.705139 429.900757,674.628479 424.288086,667.647095 
	C422.100647,664.926208 419.811005,662.285034 417.509216,659.658997 
	C408.919434,649.859314 408.910309,649.867310 399.861786,660.361755 
M353.999603,642.578247 
	C349.529053,644.788391 345.091522,647.069458 340.571259,649.172729 
	C338.838043,649.979126 337.090698,650.643311 337.082611,652.873596 
	C337.044464,663.432190 337.065582,673.990967 337.065582,684.812317 
	C342.246094,683.614563 346.394958,682.655334 350.879272,681.618591 
	C350.212402,675.648499 349.556030,669.902344 350.666016,664.107056 
	C353.744812,648.032532 367.114105,640.886230 382.120483,647.387756 
	C385.827423,648.993713 389.068207,651.291321 392.221161,653.750000 
	C393.856354,655.025146 395.401184,656.338440 397.255615,653.943298 
	C398.984711,651.710022 397.925690,650.298584 396.076630,649.023865 
	C391.286713,645.721619 386.762054,641.894592 381.623810,639.271545 
	C374.408569,635.588135 366.776855,633.264709 359.401917,639.501709 
	C358.029297,640.662598 356.249481,641.341980 353.999603,642.578247 
M291.821991,763.154480 
	C293.262543,759.853333 294.638245,756.546997 292.706757,752.359619 
	C277.369659,766.063782 260.541290,762.974304 243.604263,756.884644 
	C243.088715,760.250610 244.894577,761.690735 246.303497,763.255493 
	C251.743820,769.297546 258.732788,772.460876 266.551666,774.175232 
	C276.242950,776.300171 286.042786,772.323425 291.821991,763.154480 
M491.537811,715.910767 
	C492.592590,714.030029 493.481232,712.030029 494.730774,710.289062 
	C500.369110,702.432800 502.035858,694.848145 494.613251,686.889465 
	C491.697784,683.763428 490.569824,679.142334 486.555969,676.278992 
	C485.140228,690.674072 485.564270,704.868164 487.919281,719.063599 
	C490.414612,718.763733 490.564606,717.412842 491.537811,715.910767 
M431.386475,697.345764 
	C433.523193,701.390137 434.726562,705.639832 434.310699,710.268066 
	C434.119965,712.390747 434.486664,714.311951 436.795105,715.148499 
	C442.547424,717.233276 447.577942,720.694580 453.233276,724.134583 
	C449.135315,710.639526 442.170380,699.447571 434.253113,688.751343 
	C432.734833,686.700134 431.272034,686.450012 429.257965,687.961426 
	C427.275879,689.449036 426.865204,690.936279 428.586304,692.934265 
	C429.552612,694.056091 430.247955,695.411316 431.386475,697.345764 
M576.907227,714.528442 
	C576.534973,712.737793 576.216980,710.920898 574.469421,708.983459 
	C573.268921,718.403320 570.187073,726.825867 570.423340,736.064514 
	C573.883606,735.881042 576.332764,734.430725 578.935791,733.480652 
	C581.724487,732.462830 582.854004,730.946045 581.589905,727.852722 
	C579.906860,723.734497 578.601624,719.462036 576.907227,714.528442 
M329.207764,691.408752 
	C330.285339,684.697205 329.420746,677.952026 329.507721,671.177002 
	C326.109009,681.193420 322.872589,691.232300 319.865814,701.339478 
	C318.446472,706.110535 319.834015,707.610901 325.717010,707.833069 
	C325.153900,702.301697 325.701874,696.925903 329.207764,691.408752 
M336.423859,642.435730 
	C336.890991,644.557434 338.255768,644.494507 339.846741,643.826111 
	C345.925293,641.272400 351.955780,638.622986 358.053101,634.879761 
	C354.080139,633.427734 350.544434,632.767639 346.954681,632.261780 
	C335.953308,630.711426 335.956390,630.689636 336.423859,642.435730 
M351.959808,742.395996 
	C349.589447,740.846008 347.041107,738.733887 344.456512,741.530579 
	C341.888245,744.309509 344.300293,746.861572 345.844666,749.057190 
	C347.542816,751.471375 349.732147,753.532471 352.244507,755.084229 
	C358.923248,751.170288 358.973328,747.542480 351.959808,742.395996 
M307.012787,717.515381 
	C308.692993,721.704956 316.229034,723.293274 319.817352,720.214172 
	C322.522034,717.893433 322.205475,715.654053 318.875946,714.336731 
	C315.679230,713.071838 312.418213,711.969421 309.184692,710.795410 
	C307.389252,712.511780 307.420837,714.717712 307.012787,717.515381 
M295.641052,930.690430 
	C296.108856,932.788452 294.818848,935.332825 297.536041,937.416687 
	C300.293549,932.664795 302.109619,927.564636 307.134949,924.592834 
	C308.892853,923.553223 308.256195,919.928162 307.181641,917.573059 
	C306.662445,916.435242 305.452576,916.067688 304.202515,916.198181 
	C301.484253,916.482056 300.746582,918.645508 300.319672,920.754761 
	C299.609955,924.261475 298.294006,927.402161 295.641052,930.690430 
M657.102783,731.811829 
	C659.548218,730.250671 660.249207,728.136597 659.118347,725.444214 
	C658.524963,724.031372 657.818909,722.504639 655.976440,722.938965 
	C652.072571,723.859253 648.098694,724.736755 644.586548,727.816406 
	C648.002075,731.742432 651.479065,733.896973 657.102783,731.811829 
M623.021545,716.627441 
	C621.615295,716.513306 620.262939,715.295288 618.531250,716.563110 
	C618.608826,720.080872 617.343811,723.865601 620.167908,727.796448 
	C623.056213,725.748474 627.049194,725.337646 627.726746,721.201050 
	C628.167725,718.508057 625.810364,717.638000 623.021545,716.627441 
z"/>
<path fill="#000000" opacity="1.000000" stroke="none" 
	d="
M602.645996,561.646851 
	C606.294678,557.854309 610.730835,555.115479 612.125000,549.699768 
	C609.079834,547.214783 605.274597,547.292114 601.868164,546.296814 
	C595.804138,544.525085 594.416931,541.770142 597.730530,536.457458 
	C602.314636,529.107727 609.210510,524.487427 617.278381,521.704346 
	C620.204773,520.694885 622.971008,518.420898 627.840576,519.808533 
	C617.613464,525.586426 607.673279,530.152039 602.227783,540.208862 
	C604.666748,543.234619 608.128235,542.752441 611.040955,543.534119 
	C617.487671,545.264282 618.957336,548.283508 615.550171,554.070007 
	C611.199768,561.458313 603.956787,564.914307 596.375122,567.862122 
	C597.312805,564.687195 600.575928,564.052795 602.645996,561.646851 
z"/>
<path fill="#000000" opacity="1.000000" stroke="none" 
	d="
M354.044250,411.108154 
	C359.677704,402.149963 366.268097,394.474731 373.768982,387.543213 
	C375.869080,385.602509 378.061157,384.790375 380.974884,384.987366 
	C402.889679,386.468933 417.332733,398.348297 423.363159,418.664734 
	C434.776367,457.115479 427.619843,492.257355 399.764313,521.780090 
	C386.492554,535.846191 369.179901,539.749878 350.186493,536.388550 
	C347.149628,535.851135 345.674225,534.337402 344.517517,531.614014 
	C326.806244,489.911682 330.333527,449.896790 354.044250,411.108154 
z"/>
<path fill="#000000" opacity="1.000000" stroke="none" 
	d="
M269.807434,518.220337 
	C260.679413,509.614746 250.842941,502.123077 244.217102,490.400879 
	C250.167511,489.697968 255.091934,491.142670 259.977936,491.917755 
	C272.608124,493.921295 285.189453,496.240204 297.771179,498.537933 
	C302.017456,499.313385 304.484467,498.399933 305.754669,493.668091 
	C307.085236,488.711243 307.531006,483.318512 310.830658,478.470184 
	C312.713440,481.090790 311.350250,483.410339 311.203217,485.526184 
	C310.812164,491.154022 309.949402,496.747375 309.381470,502.365295 
	C309.079346,505.353516 307.835632,506.238251 304.746460,505.675964 
	C290.222046,503.032135 275.656525,500.614319 259.786072,497.889252 
	C274.651794,512.263062 288.735229,525.880432 302.818665,539.497864 
	C302.515869,539.873413 302.213074,540.248962 301.910309,540.624512 
	C290.431458,534.537537 280.077545,526.760315 269.807434,518.220337 
z"/>
<path fill="#000000" opacity="1.000000" stroke="none" 
	d="
M335.641357,573.868896 
	C323.680298,580.059265 312.191742,579.154663 300.553650,572.944092 
	C321.312256,576.984009 338.236420,572.020630 349.172729,552.163086 
	C350.907257,559.178833 345.618225,567.220886 335.641357,573.868896 
z"/>
<path fill="#000000" opacity="1.000000" stroke="none" 
	d="
M502.945984,325.894257 
	C518.345764,331.566528 527.666748,345.899384 526.904175,363.382568 
	C519.933594,348.786652 512.247742,334.763519 497.393463,326.072021 
	C499.294617,324.233582 500.980377,325.619537 502.945984,325.894257 
z"/>
<path fill="#000000" opacity="1.000000" stroke="none" 
	d="
M640.866577,662.861694 
	C647.250793,664.439270 653.254028,665.818237 659.191223,667.438904 
	C664.249634,668.819763 665.686157,671.386230 664.951416,676.242981 
	C664.198425,681.220337 660.864075,681.912720 656.887085,681.231140 
	C649.851013,680.025146 642.828125,678.705139 635.855713,677.177185 
	C629.797119,675.849487 627.577637,672.494934 628.812317,667.235413 
	C629.884033,662.670044 632.922302,661.274414 638.973022,662.556824 
	C639.460632,662.660156 639.961975,662.699036 640.866577,662.861694 
z"/>
<path fill="#000000" opacity="1.000000" stroke="none" 
	d="
M637.225952,692.619385 
	C641.398926,693.463318 645.179199,694.118164 648.876648,695.088745 
	C651.551025,695.790833 654.087524,696.944458 653.049927,700.599792 
	C652.159302,703.737244 650.497131,705.452332 646.849670,704.583618 
	C641.673828,703.351013 636.432861,702.386475 631.208801,701.363281 
	C628.170593,700.768250 625.490051,699.640991 626.064758,695.960327 
	C626.650330,692.209351 629.528748,691.417603 632.869568,691.840942 
	C634.188477,692.008118 635.488953,692.319702 637.225952,692.619385 
z"/>
</svg>